<svg width="137" height="127" fill="none" xmlns="http://www.w3.org/2000/svg"><path d="M65.378 127c33.137 0 60-26.863 60-60s-26.863-60-60-60-60 26.863-60 60 26.863 60 60 60Z" fill="#F0F1F2"/><path d="M39.432 97h13.784l-5.012 13.784h-3.76L39.432 97ZM80.784 97h13.783l-5.012 13.784h-3.759L80.784 97Z" fill="#9FA5AB"/><path d="M24.027 37h79.865c1.632 0 2.71 1.675 2.274 3.25l-8.57 31.035a4.358 4.358 0 0 1-3.658 3.16l-50.333 6.233L24.027 37Z" fill="#B6BABF"/><path d="M116.874 97.811C106.389 115.297 87.25 127 65.378 127c-21.872 0-41.01-11.703-51.495-29.189h102.991Z" fill="#D2D5D9"/><path d="M37.81 30.46a4 4 0 0 1 4-4h17.947a4 4 0 0 1 4 4v20.324H39.81a2 2 0 0 1-2-2V30.459Z" fill="#9FA5AB"/><path d="M37.81 28.46a2 2 0 0 1 2-2h21.947a2 2 0 0 1 2 2V37H37.81v-8.54Z" fill="#828A91"/><path d="M40.185 101.054c-2.532 0-5.1-1.19-7.106-3.124-2.434-2.35-3.89-5.706-3.89-8.978 0-.218.006-.429.02-.64.183-3.117 1.816-5.98 4.468-7.866l4.63-3.293L17.2 31.808 2.72 27.256a3.147 3.147 0 0 1-2.061-3.947 3.147 3.147 0 0 1 3.947-2.062L20.4 26.215a3.145 3.145 0 0 1 1.907 1.674l22.795 48.976a3.15 3.15 0 0 1-1.027 3.89l-6.768 4.813c-1.077.767-1.76 1.928-1.83 3.11-.007.091-.007.183-.007.274 0 1.548.774 3.293 1.97 4.454.479.464 1.457 1.224 2.646 1.224h59.345c1.738 0 3.243 1.443 3.243 3.18 0 1.739-1.505 3.244-3.243 3.244H40.185Z" fill="#108060"/><path d="M46.324 118.081a6.892 6.892 0 1 0 0-13.784 6.892 6.892 0 0 0 0 13.784ZM87.676 118.081a6.892 6.892 0 1 0 0-13.784 6.892 6.892 0 0 0 0 13.784ZM20.408 26.215l-15.802-4.96a3.147 3.147 0 0 0-3.947 2.06 3.147 3.147 0 0 0 2.061 3.948l14.184 4.46a60.695 60.695 0 0 1 4.264-5.122 2.973 2.973 0 0 0-.76-.386Z" fill="#02614E"/><path d="m43.77 52.478 3.36 22.071c.114.756.81 1.281 1.569 1.185l30.31-3.947a1.407 1.407 0 0 0 1.22-1.563L77.52 47.549a1.407 1.407 0 0 0-1.602-1.225l-30.963 4.55a1.407 1.407 0 0 0-1.186 1.604Z" fill="#9FA5AB"/><g filter="url(#a)"><path d="M101.865 58.892A25.075 25.075 0 0 0 127 33.757a25.075 25.075 0 0 0-25.135-25.135A25.075 25.075 0 0 0 76.73 33.757a25.075 25.075 0 0 0 25.135 25.135Z" fill="#EC856F"/><path d="M111.563 26.844c.723-.722.723-2.064 0-2.786-.722-.722-2.063-.722-2.785 0L92.166 40.67c-.722.722-.722 2.063 0 2.785.722.723 2.064.723 2.786 0l16.611-16.611Z" fill="#fff"/><path d="M108.778 43.455c.722.723 2.063.723 2.785 0 .723-.722.723-2.063 0-2.785L94.952 24.058c-.722-.722-2.064-.722-2.786 0-.722.723-.722 2.064 0 2.786l16.612 16.611Z" fill="#fff"/></g><defs><filter id="a" x="66.73" y=".622" width="70.27" height="70.27" filterUnits="userSpaceOnUse" color-interpolation-filters="sRGB"><feFlood flood-opacity="0" result="BackgroundImageFix"/><feColorMatrix in="SourceAlpha" values="0 0 0 0 0 0 0 0 0 0 0 0 0 0 0 0 0 0 127 0" result="hardAlpha"/><feOffset dy="2"/><feGaussianBlur stdDeviation="5"/><feColorMatrix values="0 0 0 0 0 0 0 0 0 0 0 0 0 0 0 0 0 0 0.3 0"/><feBlend in2="BackgroundImageFix" result="effect1_dropShadow_251_203380"/><feBlend in="SourceGraphic" in2="effect1_dropShadow_251_203380" result="shape"/></filter></defs></svg>
