<svg width="168" height="140" viewBox="0 0 168 140" fill="none" xmlns="http://www.w3.org/2000/svg">
<g clip-path="url(#clip0_16214_66715)">
<rect width="168" height="140" fill="white"/>
<g filter="url(#filter0_dd_16214_66715)">
<path fill-rule="evenodd" clip-rule="evenodd" d="M158.999 36.0391C158.999 34.2366 157.535 32.7754 155.729 32.7754H126.575C125.688 32.7754 124.84 33.1345 124.224 33.7704L118.069 40.1243H29.0311C25.4195 40.1243 22.4918 43.0468 22.4918 46.6518V49.2486H14.5369C11.6459 49.2486 9.45355 51.8553 9.94906 54.7036L22.4949 126.818C22.5144 127.452 22.6247 128.064 22.8131 128.64C23.0721 129.961 23.8723 131.051 24.9468 131.711C26.0659 132.606 27.4859 133.141 29.0311 133.141H152.46C156.071 133.141 158.999 130.218 158.999 126.613V36.0391Z" fill="white"/>
</g>
<path d="M9.94901 54.7035L22.7946 128.54C23.2194 130.982 25.4818 132.663 27.942 132.365L100.404 123.596C101.752 123.432 102.962 122.688 103.717 121.559L147.169 56.4915C149.235 53.397 147.017 49.2485 143.296 49.2485H14.5369C11.6459 49.2485 9.4535 51.8553 9.94901 54.7035Z" fill="#005BD3"/>
<g filter="url(#filter1_dd_16214_66715)">
<rect x="53.2422" y="6" width="80.3296" height="40.7468" rx="4.65678" fill="white"/>
</g>
<rect x="58.879" y="11.2388" width="68.6867" height="17.4627" rx="8.73133" fill="white" stroke="#E8E9EB" stroke-width="1.1642"/>
<mask id="path-5-outside-1_16214_66715" maskUnits="userSpaceOnUse" x="108.119" y="13.1494" width="13" height="13" fill="black">
<rect fill="white" x="108.119" y="13.1494" width="13" height="13"/>
<path d="M110.283 18.8062C110.283 16.88 111.85 15.3136 113.776 15.3136C115.702 15.3136 117.269 16.88 117.269 18.8062C117.269 20.7323 115.702 22.2988 113.776 22.2988C111.85 22.2988 110.283 20.7323 110.283 18.8062ZM120.591 24.7977L117.45 21.6567C118.087 20.843 118.433 19.8394 118.433 18.8062C118.433 16.2386 116.344 14.1494 113.776 14.1494C111.208 14.1494 109.119 16.2386 109.119 18.8062C109.119 21.3738 111.208 23.463 113.776 23.463C114.809 23.4627 115.813 23.1168 116.626 22.4804L119.767 25.6208C119.821 25.675 119.886 25.7181 119.956 25.7475C120.027 25.7768 120.103 25.792 120.179 25.792C120.256 25.792 120.331 25.7768 120.402 25.7475C120.472 25.7181 120.537 25.675 120.591 25.6208C120.645 25.5668 120.688 25.5026 120.717 25.432C120.746 25.3614 120.761 25.2857 120.761 25.2093C120.761 25.1328 120.746 25.0571 120.717 24.9865C120.688 24.9159 120.645 24.8517 120.591 24.7977Z"/>
</mask>
<path d="M110.283 18.8062C110.283 16.88 111.85 15.3136 113.776 15.3136C115.702 15.3136 117.269 16.88 117.269 18.8062C117.269 20.7323 115.702 22.2988 113.776 22.2988C111.85 22.2988 110.283 20.7323 110.283 18.8062ZM120.591 24.7977L117.45 21.6567C118.087 20.843 118.433 19.8394 118.433 18.8062C118.433 16.2386 116.344 14.1494 113.776 14.1494C111.208 14.1494 109.119 16.2386 109.119 18.8062C109.119 21.3738 111.208 23.463 113.776 23.463C114.809 23.4627 115.813 23.1168 116.626 22.4804L119.767 25.6208C119.821 25.675 119.886 25.7181 119.956 25.7475C120.027 25.7768 120.103 25.792 120.179 25.792C120.256 25.792 120.331 25.7768 120.402 25.7475C120.472 25.7181 120.537 25.675 120.591 25.6208C120.645 25.5668 120.688 25.5026 120.717 25.432C120.746 25.3614 120.761 25.2857 120.761 25.2093C120.761 25.1328 120.746 25.0571 120.717 24.9865C120.688 24.9159 120.645 24.8517 120.591 24.7977Z" fill="#6B7177"/>
<path d="M117.45 21.6567L117.175 21.4415L116.985 21.685L117.203 21.9037L117.45 21.6567ZM118.433 18.8062H118.083V18.8062L118.433 18.8062ZM113.776 23.463V23.8122H113.776L113.776 23.463ZM116.626 22.4804L116.873 22.2334L116.655 22.0149L116.411 22.2052L116.626 22.4804ZM119.767 25.6208L120.015 25.3745L120.014 25.3738L119.767 25.6208ZM120.591 25.6208L120.344 25.3736L120.343 25.3745L120.591 25.6208ZM110.633 18.8062C110.633 17.0729 112.043 15.6629 113.776 15.6629V14.9643C111.657 14.9643 109.934 16.6871 109.934 18.8062H110.633ZM113.776 15.6629C115.509 15.6629 116.919 17.0729 116.919 18.8062H117.618C117.618 16.6871 115.895 14.9643 113.776 14.9643V15.6629ZM116.919 18.8062C116.919 20.5395 115.509 21.9495 113.776 21.9495V22.648C115.895 22.648 117.618 20.9252 117.618 18.8062H116.919ZM113.776 21.9495C112.043 21.9495 110.633 20.5395 110.633 18.8062H109.934C109.934 20.9252 111.657 22.648 113.776 22.648V21.9495ZM120.838 24.5508L117.697 21.4098L117.203 21.9037L120.344 25.0447L120.838 24.5508ZM117.725 21.8719C118.41 20.9967 118.782 19.9174 118.782 18.8062L118.083 18.8062C118.084 19.7614 117.764 20.6892 117.175 21.4415L117.725 21.8719ZM118.782 18.8062C118.782 16.0457 116.536 13.8002 113.776 13.8002V14.4987C116.151 14.4987 118.083 16.4315 118.083 18.8062H118.782ZM113.776 13.8002C111.015 13.8002 108.77 16.0457 108.77 18.8062H109.468C109.468 16.4315 111.401 14.4987 113.776 14.4987V13.8002ZM108.77 18.8062C108.77 21.5667 111.015 23.8122 113.776 23.8122V23.1137C111.401 23.1137 109.468 21.1809 109.468 18.8062H108.77ZM113.776 23.8122C114.887 23.8119 115.966 23.4399 116.842 22.7555L116.411 22.2052C115.659 22.7936 114.731 23.1134 113.776 23.1137L113.776 23.8122ZM116.38 22.7274L119.521 25.8678L120.014 25.3738L116.873 22.2334L116.38 22.7274ZM119.52 25.8671C119.606 25.9539 119.709 26.0229 119.822 26.0699L120.09 25.425C120.062 25.4133 120.037 25.3961 120.015 25.3745L119.52 25.8671ZM119.822 26.0699C119.935 26.117 120.056 26.1412 120.179 26.1412V25.4427C120.149 25.4427 120.118 25.4367 120.09 25.425L119.822 26.0699ZM120.179 26.1412C120.302 26.1412 120.423 26.117 120.536 26.0699L120.268 25.425C120.24 25.4367 120.209 25.4427 120.179 25.4427V26.1412ZM120.536 26.0699C120.649 26.0229 120.752 25.9539 120.838 25.8671L120.343 25.3745C120.321 25.3961 120.296 25.4133 120.268 25.425L120.536 26.0699ZM120.837 25.868C120.924 25.7815 120.993 25.6788 121.039 25.5658L120.394 25.2982C120.383 25.3264 120.365 25.3521 120.344 25.3736L120.837 25.868ZM121.039 25.5658C121.086 25.4528 121.11 25.3316 121.11 25.2093H120.412C120.412 25.2398 120.406 25.27 120.394 25.2982L121.039 25.5658ZM121.11 25.2093C121.11 25.0869 121.086 24.9657 121.039 24.8527L120.394 25.1203C120.406 25.1485 120.412 25.1787 120.412 25.2093H121.11ZM121.039 24.8527C120.993 24.7397 120.924 24.637 120.837 24.5505L120.344 25.0449C120.365 25.0665 120.383 25.0921 120.394 25.1203L121.039 24.8527Z" fill="#6B7177" mask="url(#path-5-outside-1_16214_66715)"/>
<rect x="63.7207" y="17.6421" width="40.7469" height="4.65677" rx="2.32839" fill="#E8E9EB"/>
<g filter="url(#filter2_dd_16214_66715)">
<rect x="39.6621" y="15.3145" width="37.2538" height="32.597" rx="4.65678" fill="white"/>
</g>
<path d="M52.2005 26.2401C52.2005 25.8444 52.5212 25.5237 52.9169 25.5237H53.6333C54.029 25.5237 54.3497 25.8444 54.3497 26.2401V26.9565C54.3497 27.3522 54.029 27.6729 53.6333 27.6729H52.9169C52.5212 27.6729 52.2005 27.3522 52.2005 26.9565V26.2401Z" fill="#6B7177"/>
<path fill-rule="evenodd" clip-rule="evenodd" d="M48.9766 24.8073C48.9766 23.4224 50.0992 22.2998 51.484 22.2998H55.0661C56.451 22.2998 57.5736 23.4224 57.5736 24.8073V28.3894C57.5736 29.7742 56.451 30.8968 55.0661 30.8968H51.484C50.0992 30.8968 48.9766 29.7742 48.9766 28.3894V24.8073ZM51.484 24.4491C51.2862 24.4491 51.1258 24.6094 51.1258 24.8073V28.3894C51.1258 28.5872 51.2862 28.7476 51.484 28.7476H55.0661C55.264 28.7476 55.4243 28.5872 55.4243 28.3894V24.8073C55.4243 24.6094 55.264 24.4491 55.0661 24.4491H51.484Z" fill="#6B7177"/>
<path d="M52.9169 35.5535C52.5212 35.5535 52.2005 35.8743 52.2005 36.2699V36.9864C52.2005 37.382 52.5212 37.7028 52.9169 37.7028H53.6333C54.029 37.7028 54.3497 37.382 54.3497 36.9864V36.2699C54.3497 35.8743 54.029 35.5535 53.6333 35.5535H52.9169Z" fill="#6B7177"/>
<path fill-rule="evenodd" clip-rule="evenodd" d="M48.9766 34.8371C48.9766 33.4523 50.0992 32.3297 51.484 32.3297H55.0661C56.451 32.3297 57.5736 33.4523 57.5736 34.8371V38.4192C57.5736 39.804 56.451 40.9267 55.0661 40.9267H51.484C50.0992 40.9267 48.9766 39.804 48.9766 38.4192V34.8371ZM51.484 34.4789C51.2862 34.4789 51.1258 34.6393 51.1258 34.8371V38.4192C51.1258 38.617 51.2862 38.7774 51.484 38.7774H55.0661C55.264 38.7774 55.4243 38.617 55.4243 38.4192V34.8371C55.4243 34.6393 55.264 34.4789 55.0661 34.4789H51.484Z" fill="#6B7177"/>
<path d="M62.2303 26.2401C62.2303 25.8444 62.5511 25.5237 62.9467 25.5237H63.6632C64.0588 25.5237 64.3796 25.8444 64.3796 26.2401V26.9565C64.3796 27.3522 64.0588 27.6729 63.6632 27.6729H62.9467C62.5511 27.6729 62.2303 27.3522 62.2303 26.9565V26.2401Z" fill="#6B7177"/>
<path fill-rule="evenodd" clip-rule="evenodd" d="M61.5139 22.2998C60.1291 22.2998 59.0064 23.4224 59.0064 24.8073V28.3894C59.0064 29.7742 60.1291 30.8968 61.5139 30.8968H65.096C66.4808 30.8968 67.6035 29.7742 67.6035 28.3894V24.8073C67.6035 23.4224 66.4808 22.2998 65.096 22.2998L61.5139 22.2998ZM61.1557 24.8073C61.1557 24.6094 61.3161 24.4491 61.5139 24.4491H65.096C65.2938 24.4491 65.4542 24.6094 65.4542 24.8073V28.3894C65.4542 28.5872 65.2938 28.7476 65.096 28.7476H61.5139C61.3161 28.7476 61.1557 28.5872 61.1557 28.3894V24.8073Z" fill="#6B7177"/>
<path d="M59.7229 32.3297C59.3272 32.3297 59.0064 32.6504 59.0064 33.0461V34.4789C59.0064 34.8746 59.3272 35.1953 59.7229 35.1953H61.1557C61.5514 35.1953 61.8721 34.8746 61.8721 34.4789V33.0461C61.8721 32.6504 61.5514 32.3297 61.1557 32.3297H59.7229Z" fill="#6B7177"/>
<path d="M59.0064 38.7774C59.0064 38.3817 59.3272 38.061 59.7229 38.061H61.1557C61.5514 38.061 61.8721 38.3817 61.8721 38.7774V40.2102C61.8721 40.6059 61.5514 40.9267 61.1557 40.9267H59.7229C59.3272 40.9267 59.0064 40.6059 59.0064 40.2102V38.7774Z" fill="#6B7177"/>
<path d="M65.4542 32.3297C65.0585 32.3297 64.7378 32.6504 64.7378 33.0461V34.4789C64.7378 34.8746 65.0585 35.1953 65.4542 35.1953H66.8871C67.2827 35.1953 67.6035 34.8746 67.6035 34.4789V33.0461C67.6035 32.6504 67.2827 32.3297 66.8871 32.3297H65.4542Z" fill="#6B7177"/>
<path d="M64.7378 38.7774C64.7378 38.3817 65.0585 38.061 65.4542 38.061H66.8871C67.2827 38.061 67.6035 38.3817 67.6035 38.7774V40.2102C67.6035 40.6059 67.2827 40.9267 66.8871 40.9267H65.4542C65.0585 40.9267 64.7378 40.6059 64.7378 40.2102V38.7774Z" fill="#6B7177"/>
<path d="M62.5885 35.1953C62.1929 35.1953 61.8721 35.5161 61.8721 35.9117V37.3446C61.8721 37.7402 62.1929 38.061 62.5885 38.061H64.0214C64.417 38.061 64.7378 37.7402 64.7378 37.3446V35.9117C64.7378 35.5161 64.417 35.1953 64.0214 35.1953H62.5885Z" fill="#6B7177"/>
<path fill-rule="evenodd" clip-rule="evenodd" d="M155.73 32.7754C157.536 32.7754 159 34.2366 159 36.0391V41.7507H159V126.613C159 130.218 156.072 133.141 152.461 133.141H29.0318C25.4203 133.141 22.4926 130.218 22.4926 126.613V46.6516C22.4926 43.0466 25.4203 40.1241 29.0318 40.1241H118.07L124.225 33.7704C124.841 33.1345 125.689 32.7754 126.576 32.7754H155.73Z" fill="#4188FF"/>
<rect x="113.053" y="69.5825" width="18.486" height="3.08099" rx="1.54049" fill="#005BD3"/>
<rect x="113.053" y="91.1494" width="18.486" height="3.08099" rx="1.54049" fill="#005BD3"/>
<rect x="112.852" y="80.3657" width="23.1075" height="3.08099" rx="1.54049" fill="#005BD3"/>
<rect x="112.852" y="101.934" width="11.5537" height="3.08099" rx="1.54049" fill="#005BD3"/>
<ellipse cx="105.351" cy="71.123" rx="3.081" ry="3.08099" fill="#004299"/>
<ellipse cx="105.351" cy="92.6894" rx="3.081" ry="3.08099" fill="white"/>
<ellipse cx="105.351" cy="81.9067" rx="3.081" ry="3.08099" fill="#FFB800"/>
<ellipse cx="105.351" cy="103.473" rx="3.081" ry="3.08099" fill="#005BD3"/>
<path fill-rule="evenodd" clip-rule="evenodd" d="M65.2969 102.704C73.8049 102.704 80.7019 95.8067 80.7019 87.2988C80.7019 78.7909 73.8049 71.8939 65.2969 71.8939C56.789 71.8939 49.8919 78.7909 49.8919 87.2988C49.8919 95.8067 56.789 102.704 65.2969 102.704ZM65.2969 110.406C78.0588 110.406 88.4044 100.061 88.4044 87.2988C88.4044 74.5369 78.0588 64.1914 65.2969 64.1914C52.535 64.1914 42.1895 74.5369 42.1895 87.2988C42.1895 100.061 52.535 110.406 65.2969 110.406Z" fill="white"/>
<path fill-rule="evenodd" clip-rule="evenodd" d="M48.9519 70.9591C44.7701 75.1408 42.1836 80.9177 42.1836 87.2988C42.1836 100.061 52.5292 110.406 65.2911 110.406C78.053 110.406 88.3985 100.061 88.3985 87.2988C88.3985 74.5372 78.0534 64.1918 65.2918 64.1914V71.8939C73.7994 71.8943 80.6961 78.7912 80.6961 87.2988C80.6961 95.8067 73.799 102.704 65.2911 102.704C56.7831 102.704 49.8861 95.8067 49.8861 87.2988C49.8861 83.0447 51.6105 79.1934 54.3984 76.4056L48.9519 70.9591Z" fill="#005BD3"/>
<path fill-rule="evenodd" clip-rule="evenodd" d="M46.5742 100.854C50.7735 106.642 57.5925 110.407 65.2907 110.407C78.0526 110.407 88.3982 100.061 88.3982 87.2993C88.3982 74.5382 78.0538 64.1931 65.2929 64.1919V71.8944C73.7998 71.8956 80.6957 78.7921 80.6957 87.2993C80.6957 95.8072 73.7986 102.704 65.2907 102.704C60.1587 102.704 55.6128 100.195 52.8132 96.3359L46.5742 100.854Z" fill="#004299"/>
<path fill-rule="evenodd" clip-rule="evenodd" d="M65.2969 64.1909C78.0575 64.1924 88.4015 74.5374 88.4015 87.2983C88.4015 91.1156 87.4759 94.7166 85.8369 97.8893L78.9895 94.3586C80.0821 92.2436 80.6991 89.843 80.6991 87.2983C80.6991 78.7914 73.8035 71.8949 65.2969 71.8934V64.1909Z" fill="#FFB800"/>
<path d="M64.5233 85.4395L46.344 67.2601L46.5011 69.5958L64.1102 87.2049L41.9863 103.226L43.9264 103.723L65.2134 88.3081L66.0639 88.5628L90.551 101.189L89.3322 98.8273L66.0639 86.8295L66.0638 61.8809L64.5233 63.5848V85.4395Z" fill="#4188FF"/>
<path fill-rule="evenodd" clip-rule="evenodd" d="M44.9749 64.2442L63.3597 82.629V63.1367L67.2286 58.8574L67.2286 86.1201L90.1968 97.9631L93.2576 103.894L65.6269 89.6472L65.4309 89.5885L44.1673 104.986L39.2949 103.738L62.3222 87.0629L45.3694 70.1101L44.9749 64.2442ZM64.1108 87.2051L41.9869 103.226L43.927 103.723L65.214 88.3082L66.0644 88.5629L90.5515 101.189L89.3328 98.8274L66.0644 86.8297L66.0644 61.881L64.5239 63.5849V85.4396L46.3445 67.2603L46.5016 69.596L64.1108 87.2051Z" fill="#4188FF"/>
</g>
<defs>
<filter id="filter0_dd_16214_66715" x="3.87891" y="28.5869" width="161.121" height="112.365" filterUnits="userSpaceOnUse" color-interpolation-filters="sRGB">
<feFlood flood-opacity="0" result="BackgroundImageFix"/>
<feColorMatrix in="SourceAlpha" type="matrix" values="0 0 0 0 0 0 0 0 0 0 0 0 0 0 0 0 0 0 127 0" result="hardAlpha"/>
<feOffset dy="1.81156"/>
<feGaussianBlur stdDeviation="3"/>
<feColorMatrix type="matrix" values="0 0 0 0 0 0 0 0 0 0 0 0 0 0 0 0 0 0 0.09 0"/>
<feBlend mode="normal" in2="BackgroundImageFix" result="effect1_dropShadow_16214_66715"/>
<feColorMatrix in="SourceAlpha" type="matrix" values="0 0 0 0 0 0 0 0 0 0 0 0 0 0 0 0 0 0 127 0" result="hardAlpha"/>
<feOffset dy="1.20771"/>
<feGaussianBlur stdDeviation="0.905779"/>
<feColorMatrix type="matrix" values="0 0 0 0 0 0 0 0 0 0 0 0 0 0 0 0 0 0 0.12 0"/>
<feBlend mode="normal" in2="effect1_dropShadow_16214_66715" result="effect2_dropShadow_16214_66715"/>
<feBlend mode="normal" in="SourceGraphic" in2="effect2_dropShadow_16214_66715" result="shape"/>
</filter>
<filter id="filter1_dd_16214_66715" x="47.2422" y="1.81156" width="92.3301" height="52.7466" filterUnits="userSpaceOnUse" color-interpolation-filters="sRGB">
<feFlood flood-opacity="0" result="BackgroundImageFix"/>
<feColorMatrix in="SourceAlpha" type="matrix" values="0 0 0 0 0 0 0 0 0 0 0 0 0 0 0 0 0 0 127 0" result="hardAlpha"/>
<feOffset dy="1.81156"/>
<feGaussianBlur stdDeviation="3"/>
<feColorMatrix type="matrix" values="0 0 0 0 0 0 0 0 0 0 0 0 0 0 0 0 0 0 0.09 0"/>
<feBlend mode="normal" in2="BackgroundImageFix" result="effect1_dropShadow_16214_66715"/>
<feColorMatrix in="SourceAlpha" type="matrix" values="0 0 0 0 0 0 0 0 0 0 0 0 0 0 0 0 0 0 127 0" result="hardAlpha"/>
<feOffset dy="1.20771"/>
<feGaussianBlur stdDeviation="0.905779"/>
<feColorMatrix type="matrix" values="0 0 0 0 0 0 0 0 0 0 0 0 0 0 0 0 0 0 0.12 0"/>
<feBlend mode="normal" in2="effect1_dropShadow_16214_66715" result="effect2_dropShadow_16214_66715"/>
<feBlend mode="normal" in="SourceGraphic" in2="effect2_dropShadow_16214_66715" result="shape"/>
</filter>
<filter id="filter2_dd_16214_66715" x="25.7735" y="3.2374" width="65.0311" height="60.3744" filterUnits="userSpaceOnUse" color-interpolation-filters="sRGB">
<feFlood flood-opacity="0" result="BackgroundImageFix"/>
<feColorMatrix in="SourceAlpha" type="matrix" values="0 0 0 0 0 0 0 0 0 0 0 0 0 0 0 0 0 0 127 0" result="hardAlpha"/>
<feOffset dy="1.81156"/>
<feGaussianBlur stdDeviation="6.9443"/>
<feColorMatrix type="matrix" values="0 0 0 0 0 0 0 0 0 0 0 0 0 0 0 0 0 0 0.09 0"/>
<feBlend mode="normal" in2="BackgroundImageFix" result="effect1_dropShadow_16214_66715"/>
<feColorMatrix in="SourceAlpha" type="matrix" values="0 0 0 0 0 0 0 0 0 0 0 0 0 0 0 0 0 0 127 0" result="hardAlpha"/>
<feOffset dy="1.20771"/>
<feGaussianBlur stdDeviation="0.905779"/>
<feColorMatrix type="matrix" values="0 0 0 0 0 0 0 0 0 0 0 0 0 0 0 0 0 0 0.12 0"/>
<feBlend mode="normal" in2="effect1_dropShadow_16214_66715" result="effect2_dropShadow_16214_66715"/>
<feBlend mode="normal" in="SourceGraphic" in2="effect2_dropShadow_16214_66715" result="shape"/>
</filter>
<clipPath id="clip0_16214_66715">
<rect width="168" height="140" fill="white"/>
</clipPath>
</defs>
</svg>
